<svg xmlns="http://www.w3.org/2000/svg" xmlns:xlink="http://www.w3.org/1999/xlink" viewBox="0,0,256,256" width="48px" height="48px" fill-rule="nonzero"><g transform=""><g fill="none" fill-rule="nonzero" stroke="none" stroke-width="none" stroke-linecap="butt" stroke-linejoin="none" stroke-miterlimit="10" stroke-dasharray="" stroke-dashoffset="0" font-family="none" font-weight="none" font-size="none" text-anchor="none" style="mix-blend-mode: normal"><path transform="scale(5.33333,5.33333)" d="M32.593,5.413c2.859,-0.01 5.967,0.503 8.075,2.434c2.321,2.127 2.889,5.575 2.922,8.723c0.046,4.375 -0.125,9.592 -0.08,13.967c0.047,4.524 -0.193,8.685 -3.015,12.222c-0.345,0.431 -1.28,1.223 -2.514,1.353c-7.77,0.816 -15.914,0.743 -23.69,-0.009c-3.138,-0.303 -6.373,-0.801 -8.064,-3.462c-1.064,-1.674 -1.526,-3.865 -1.568,-5.849c-0.118,-5.607 -0.123,-11.33 -0.241,-16.937c-0.054,-2.561 0.178,-4.981 1.047,-7.39c0.869,-2.409 3.474,-4.66 6.017,-4.971c3.05,-0.121 14.76,-0.06 21.111,-0.081z" id="strokeMainSVG" fill="#d7cccc" stroke="#d7cccc" stroke-width="2" stroke-linejoin="round"></path><g transform="scale(5.33333,5.33333)" stroke-width="1" stroke-linejoin="miter"><path d="M11.482,5.494c-2.543,0.311 -5.148,2.562 -6.017,4.971c-0.869,2.409 -1.101,4.829 -1.047,7.39c0.118,5.607 0.123,11.33 0.241,16.937c0.042,1.984 0.504,4.175 1.568,5.849c1.691,2.661 4.926,3.159 8.064,3.462c7.776,0.752 15.92,0.825 23.69,0.009c1.234,-0.13 2.169,-0.922 2.514,-1.353c2.822,-3.537 3.062,-7.698 3.015,-12.222c-0.045,-4.375 0.126,-9.592 0.08,-13.967c-0.033,-3.148 -0.601,-6.596 -2.922,-8.723c-2.108,-1.931 -5.216,-2.444 -8.075,-2.434c-6.351,0.021 -18.061,-0.04 -21.111,0.081z" fill="#9ed9de" stroke="#1d1d1b"></path><path d="M26.453,34.592c0.048,1.005 0.588,2.363 3.094,2.009c2.284,-0.323 2.288,-2.968 1.762,-3.775" fill="#4b7bb2" stroke="#1d1d1b"></path><path d="M23.895,34.338c0.872,0.048 1.746,0.096 2.616,0.03c2.801,-0.212 5.485,-1.664 7.196,-3.891c1.711,-2.227 2.422,-5.195 1.905,-7.956c-0.118,-0.63 -0.296,-1.248 -0.506,-1.854c-0.746,-2.152 -1.946,-4.213 -3.766,-5.582c-1.66,-1.248 -3.774,-1.851 -5.849,-1.76c-2.075,0.09 -4.101,0.858 -5.775,2.088c-1.454,1.069 -2.639,2.495 -3.453,4.104c-0.944,1.868 -1.03,3.699 -1.349,5.719c-0.239,1.513 0.099,3.537 -2.71,3.537c-0.117,1.683 3.193,3.709 4.491,4.292c2.25,1.008 4.775,1.14 7.2,1.273z" fill="#d6e5e5" stroke="#1d1d1b"></path><path d="M21.476,31.943c-0.642,-0.883 -1.365,-0.923 -2.123,-0.928c-0.982,-0.007 -3.372,1.289 -2.913,3.732c0.34,1.812 1.847,2.238 2.226,2.293c0.909,0.134 1.786,-0.012 2.601,-0.436c1.751,-0.91 1.295,-3.168 0.209,-4.661z" fill="#4b7bb2" stroke="#1d1d1b"></path><path d="M22.979,26.389c0.006,0.017 0.607,1.718 2.688,2.134c0.745,0.147 3.254,0.428 4.336,-2.208c0.106,-0.255 0.401,-0.378 0.652,-0.272c0.256,0.105 0.378,0.397 0.273,0.652c-0.888,2.162 -2.672,2.92 -4.341,2.92c-0.383,0 -0.759,-0.04 -1.116,-0.111c-2.664,-0.533 -3.466,-2.731 -3.474,-2.964c0,0 -0.106,-0.433 0.374,-0.523c0.429,-0.081 0.608,0.372 0.608,0.372z" fill="#1d1d1b" stroke="none"></path><path d="M23.483,20.163c-0.738,-0.211 -1.614,0.459 -1.56,1.224c0.012,0.168 0.115,0.762 0.858,0.943c0.53,0.129 1.144,-0.08 1.369,-0.699c0.327,-0.902 -0.667,-1.468 -0.667,-1.468z" fill="#4b7bb2" stroke="#1d1d1b"></path><path d="M30.449,20.15c-0.738,-0.211 -1.6,0.473 -1.526,1.237c0.039,0.401 0.517,0.814 1.102,0.883c0.516,0.061 1.023,-0.244 1.204,-0.682c0.278,-0.671 -0.161,-1.224 -0.78,-1.438z" fill="#4b7bb2" stroke="#1d1d1b"></path></g></g><g fill="none" fill-rule="nonzero" stroke="none" stroke-width="none" stroke-linecap="butt" stroke-linejoin="none" stroke-miterlimit="10" stroke-dasharray="" stroke-dashoffset="0" font-family="none" font-weight="none" font-size="none" text-anchor="none" style="mix-blend-mode: normal"><path d="M84.38333,26.60333h18.9v5.03h-2.62l-0.23,-2.61h-5.05v17.92l2.55,0.44v1.97h-8.18v-1.97l2.55,-0.44v-17.92h-5.06l-0.22,2.61h-2.64zM118.55333,49.35333h-4.03c-0.09333,-0.46 -0.16667,-0.87 -0.22,-1.23c-0.05333,-0.36667 -0.09,-0.73333 -0.11,-1.1c-0.59333,0.76 -1.33667,1.39333 -2.23,1.9c-0.88667,0.50667 -1.83667,0.76 -2.85,0.76c-1.76,0 -3.09667,-0.43 -4.01,-1.29c-0.92,-0.86 -1.38,-2.07 -1.38,-3.63c0,-1.60667 0.65,-2.84333 1.95,-3.71c1.29333,-0.87333 3.07,-1.31 5.33,-1.31h3.18v-1.97c0,-0.98667 -0.31333,-1.77 -0.94,-2.35c-0.62667,-0.58 -1.49667,-0.87 -2.61,-0.87c-0.77333,0 -1.45333,0.1 -2.04,0.3c-0.58667,0.2 -1.06333,0.47 -1.43,0.81l-0.33,1.78h-2.37v-3.28c0.76667,-0.61333 1.69667,-1.10333 2.79,-1.47c1.09333,-0.37333 2.28333,-0.56 3.57,-0.56c1.91333,0 3.46333,0.49 4.65,1.47c1.18667,0.98 1.78,2.38 1.78,4.2v8.14c0,0.22 0.00333,0.43333 0.01,0.64c0.00667,0.21333 0.02,0.42333 0.04,0.63l1.25,0.17zM109.57333,47.10333c1.02,0 1.95,-0.24333 2.79,-0.73c0.84667,-0.49333 1.45333,-1.08333 1.82,-1.77v-2.78h-3.29c-1.26,0 -2.25667,0.29 -2.99,0.87c-0.73333,0.58667 -1.1,1.29667 -1.1,2.13c0,0.74 0.23,1.30333 0.69,1.69c0.46,0.39333 1.15333,0.59 2.08,0.59zM123.24333,27.40333l-2.55,-0.44v-1.98h5.63v21.96l2.54,0.44v1.97h-8.17v-1.97l2.55,-0.44zM133.32333,27.40333l-2.55,-0.44v-1.98h5.62v14.12h1.97l3.61,-4.47l-1.54,-0.2v-1.99h7.07v1.99l-2.06,0.4l-4.45,5.32l5.42,6.86l1.92,0.37v1.97h-7.01v-1.97l1.57,-0.2l-4.48,-5.63h-2.02v5.39l2.55,0.44v1.97h-8.17v-1.97l2.55,-0.44zM150.64333,49.35333v-1.97l2.55,-0.44v-12.07l-2.55,-0.44v-1.99h5.63v14.5l2.55,0.44v1.97zM156.27333,24.98333v3.14h-3.08v-3.14zM168.88333,49.68333c-2.35333,0 -4.22667,-0.78333 -5.62,-2.35c-1.38667,-1.56667 -2.08,-3.6 -2.08,-6.1v-0.69c0,-2.40667 0.71333,-4.41 2.14,-6.01c1.43333,-1.6 3.13,-2.4 5.09,-2.4c2.27333,0 3.99333,0.68667 5.16,2.06c1.17333,1.38 1.76,3.21333 1.76,5.5v1.93h-10.97l-0.04,0.07c0.02667,1.62667 0.43667,2.96333 1.23,4.01c0.79333,1.04667 1.90333,1.57 3.33,1.57c1.04,0 1.95333,-0.14667 2.74,-0.44c0.78667,-0.3 1.46667,-0.71 2.04,-1.23l1.2,2c-0.6,0.58667 -1.4,1.08 -2.4,1.48c-0.99333,0.4 -2.18667,0.6 -3.58,0.6zM168.41333,34.55333c-1.03333,0 -1.91333,0.43667 -2.64,1.31c-0.72667,0.86667 -1.17333,1.95667 -1.34,3.27l0.03,0.08h7.79v-0.41c0,-1.20667 -0.32333,-2.21667 -0.97,-3.03c-0.64,-0.81333 -1.59667,-1.22 -2.87,-1.22zM182.28333,26.60333v15.28h-3.07v-15.28zM182.28333,46.16333v3.19h-3.07v-3.19z" id="strokeMainSVG" fill="#d7cccc" stroke="#d7cccc" stroke-width="32" stroke-linejoin="round"></path><g fill="#000000" stroke="none" stroke-width="1" stroke-linejoin="miter"><path d="M84.38333,26.60333h18.9v5.03h-2.62l-0.23,-2.61h-5.05v17.92l2.55,0.44v1.97h-8.18v-1.97l2.55,-0.44v-17.92h-5.06l-0.22,2.61h-2.64zM118.55333,49.35333h-4.03c-0.09333,-0.46 -0.16667,-0.87 -0.22,-1.23c-0.05333,-0.36667 -0.09,-0.73333 -0.11,-1.1v0c-0.59333,0.76 -1.33667,1.39333 -2.23,1.9c-0.88667,0.50667 -1.83667,0.76 -2.85,0.76v0c-1.76,0 -3.09667,-0.43 -4.01,-1.29c-0.92,-0.86 -1.38,-2.07 -1.38,-3.63v0c0,-1.60667 0.65,-2.84333 1.95,-3.71c1.29333,-0.87333 3.07,-1.31 5.33,-1.31v0h3.18v-1.97c0,-0.98667 -0.31333,-1.77 -0.94,-2.35c-0.62667,-0.58 -1.49667,-0.87 -2.61,-0.87v0c-0.77333,0 -1.45333,0.1 -2.04,0.3c-0.58667,0.2 -1.06333,0.47 -1.43,0.81v0l-0.33,1.78h-2.37v-3.28c0.76667,-0.61333 1.69667,-1.10333 2.79,-1.47c1.09333,-0.37333 2.28333,-0.56 3.57,-0.56v0c1.91333,0 3.46333,0.49 4.65,1.47c1.18667,0.98 1.78,2.38 1.78,4.2v0v8.14c0,0.22 0.00333,0.43333 0.01,0.64c0.00667,0.21333 0.02,0.42333 0.04,0.63v0l1.25,0.17zM109.57333,47.10333v0c1.02,0 1.95,-0.24333 2.79,-0.73c0.84667,-0.49333 1.45333,-1.08333 1.82,-1.77v0v-2.78h-3.29c-1.26,0 -2.25667,0.29 -2.99,0.87c-0.73333,0.58667 -1.1,1.29667 -1.1,2.13v0c0,0.74 0.23,1.30333 0.69,1.69c0.46,0.39333 1.15333,0.59 2.08,0.59zM123.24333,27.40333l-2.55,-0.44v-1.98h5.63v21.96l2.54,0.44v1.97h-8.17v-1.97l2.55,-0.44zM133.32333,27.40333l-2.55,-0.44v-1.98h5.62v14.12h1.97l3.61,-4.47l-1.54,-0.2v-1.99h7.07v1.99l-2.06,0.4l-4.45,5.32l5.42,6.86l1.92,0.37v1.97h-7.01v-1.97l1.57,-0.2l-4.48,-5.63h-2.02v5.39l2.55,0.44v1.97h-8.17v-1.97l2.55,-0.44zM150.64333,49.35333v-1.97l2.55,-0.44v-12.07l-2.55,-0.44v-1.99h5.63v14.5l2.55,0.44v1.97zM156.27333,24.98333v3.14h-3.08v-3.14zM168.88333,49.68333v0c-2.35333,0 -4.22667,-0.78333 -5.62,-2.35c-1.38667,-1.56667 -2.08,-3.6 -2.08,-6.1v0v-0.69c0,-2.40667 0.71333,-4.41 2.14,-6.01c1.43333,-1.6 3.13,-2.4 5.09,-2.4v0c2.27333,0 3.99333,0.68667 5.16,2.06c1.17333,1.38 1.76,3.21333 1.76,5.5v0v1.93h-10.97l-0.04,0.07c0.02667,1.62667 0.43667,2.96333 1.23,4.01c0.79333,1.04667 1.90333,1.57 3.33,1.57v0c1.04,0 1.95333,-0.14667 2.74,-0.44c0.78667,-0.3 1.46667,-0.71 2.04,-1.23v0l1.2,2c-0.6,0.58667 -1.4,1.08 -2.4,1.48c-0.99333,0.4 -2.18667,0.6 -3.58,0.6zM168.41333,34.55333v0c-1.03333,0 -1.91333,0.43667 -2.64,1.31c-0.72667,0.86667 -1.17333,1.95667 -1.34,3.27v0l0.03,0.08h7.79v-0.41c0,-1.20667 -0.32333,-2.21667 -0.97,-3.03c-0.64,-0.81333 -1.59667,-1.22 -2.87,-1.22zM182.28333,26.60333v15.28h-3.07v-15.28zM182.28333,46.16333v3.19h-3.07v-3.19z"></path></g></g></g></svg>